<?xml version='1.0' encoding='UTF-8' standalone='no'?>
<!-- Created with Fritzing (http://www.fritzing.org/) -->
<svg xmlns="http://www.w3.org/2000/svg" baseProfile="tiny" y="0in" viewBox="0 0 113.997 194.558" width="1.58329in" x="0in" version="1.2" height="2.70219in" xmlns:svg="http://www.w3.org/2000/svg" >
 <g transform="matrix(-1, 0, 0, 1, 113.997, 0)">
  <g partID="57470">
   <g id="board" >
    <rect stroke="black" y="0.288" stroke-width="0.5" id="boardoutline" fill="none" width="113.421" x="0.288" fill-opacity="0.5" height="193.982" />
   </g>
  </g>
  <g partID="57581">
   <g transform="translate(25.8424,89.3564)">
    <g id="copper1" >
     <!-- <rect width="55" x="10" y="15.5" fill="none" height="55" stroke="rgb(255, 191, 0)" stroke-width="20" />  -->
     <circle stroke="black" stroke-width="1.44" fill="none" id="connector0pin" cy="3.096" r="1.98"  cx="2.7"/>
     <circle stroke="black" stroke-width="1.44" fill="none" id="connector1pin" cy="3.096" r="1.98"  cx="31.5"/>
    </g>
   </g>
  </g>
  <g partID="57561">
   <g transform="translate(54.6424,89.3564)">
    <g id="copper1" >
     <!-- <rect width="55" x="10" y="15.5" fill="none" height="55" stroke="rgb(255, 191, 0)" stroke-width="20" />  -->
     <circle stroke="black" stroke-width="1.44" fill="none" id="connector0pin" cy="3.096" r="1.98"  cx="2.7"/>
     <circle stroke="black" stroke-width="1.44" fill="none" id="connector1pin" cy="3.096" r="1.98"  cx="31.5"/>
    </g>
   </g>
  </g>
  <g partID="57511">
   <g transform="translate(25.8424,96.5564)">
    <g id="copper1" >
     <!-- <rect width="55" x="10" y="15.5" fill="none" height="55" stroke="rgb(255, 191, 0)" stroke-width="20" />  -->
     <circle stroke="black" stroke-width="1.44" fill="none" id="connector0pin" cy="3.096" r="1.98"  cx="2.7"/>
     <circle stroke="black" stroke-width="1.44" fill="none" id="connector1pin" cy="3.096" r="1.98"  cx="31.5"/>
    </g>
   </g>
  </g>
  <g partID="57541">
   <g transform="translate(54.6424,82.1564)">
    <g id="copper1" >
     <!-- <rect width="55" x="10" y="15.5" fill="none" height="55" stroke="rgb(255, 191, 0)" stroke-width="20" />  -->
     <circle stroke="black" stroke-width="1.44" fill="none" id="connector0pin" cy="3.096" r="1.98"  cx="2.7"/>
     <circle stroke="black" stroke-width="1.44" fill="none" id="connector1pin" cy="3.096" r="1.98"  cx="31.5"/>
    </g>
   </g>
  </g>
  <g partID="170741">
   <g transform="translate(17.0272,66.5368)">
    <g id="copper1" >
     <circle stroke="black" stroke-width="1.44" fill="none" id="connector0pin" cy="4.31559" r="1.99559"  cx="4.31559"/>
    </g>
   </g>
  </g>
  <g partID="170721">
   <g transform="translate(17.0272,30.5368)">
    <g id="copper1" >
     <circle stroke="black" stroke-width="1.44" fill="none" id="connector0pin" cy="4.31559" r="1.99559"  cx="4.31559"/>
    </g>
   </g>
  </g>
  <g partID="170711">
   <g transform="translate(17.0272,88.1368)">
    <g id="copper1" >
     <circle stroke="black" stroke-width="1.44" fill="none" id="connector0pin" cy="4.31559" r="1.99559"  cx="4.31559"/>
    </g>
   </g>
  </g>
  <g partID="170701">
   <g transform="translate(17.0272,95.3368)">
    <g id="copper1" >
     <circle stroke="black" stroke-width="1.44" fill="none" id="connector0pin" cy="4.31559" r="1.99559"  cx="4.31559"/>
    </g>
   </g>
  </g>
  <g partID="170691">
   <g transform="translate(17.0272,102.537)">
    <g id="copper1" >
     <circle stroke="black" stroke-width="1.44" fill="none" id="connector0pin" cy="4.31559" r="1.99559"  cx="4.31559"/>
    </g>
   </g>
  </g>
  <g partID="170751">
   <g transform="translate(17.0272,44.9368)">
    <g id="copper1" >
     <circle stroke="black" stroke-width="1.44" fill="none" id="connector0pin" cy="4.31559" r="1.99559"  cx="4.31559"/>
    </g>
   </g>
  </g>
  <g partID="170801">
   <g transform="translate(17.0272,52.1368)">
    <g id="copper1" >
     <circle stroke="black" stroke-width="1.44" fill="none" id="connector0pin" cy="4.31559" r="1.99559"  cx="4.31559"/>
    </g>
   </g>
  </g>
  <g partID="170821">
   <g transform="translate(17.0272,37.7368)">
    <g id="copper1" >
     <circle stroke="black" stroke-width="1.44" fill="none" id="connector0pin" cy="4.31559" r="1.99559"  cx="4.31559"/>
    </g>
   </g>
  </g>
  <g partID="170811">
   <g transform="translate(17.0272,116.937)">
    <g id="copper1" >
     <circle stroke="black" stroke-width="1.44" fill="none" id="connector0pin" cy="4.31559" r="1.99559"  cx="4.31559"/>
    </g>
   </g>
  </g>
  <g partID="170761">
   <g transform="translate(17.0272,23.3368)">
    <g id="copper1" >
     <circle stroke="black" stroke-width="1.44" fill="none" id="connector0pin" cy="4.31559" r="1.99559"  cx="4.31559"/>
    </g>
   </g>
  </g>
  <g partID="170681">
   <g transform="translate(17.0272,73.7368)">
    <g id="copper1" >
     <circle stroke="black" stroke-width="1.44" fill="none" id="connector0pin" cy="4.31559" r="1.99559"  cx="4.31559"/>
    </g>
   </g>
  </g>
  <g partID="170781">
   <g transform="translate(17.0272,16.1368)">
    <g id="copper1" >
     <circle stroke="black" stroke-width="1.44" fill="none" id="connector0pin" cy="4.31559" r="1.99559"  cx="4.31559"/>
    </g>
   </g>
  </g>
  <g partID="170771">
   <g transform="translate(17.0272,109.737)">
    <g id="copper1" >
     <circle stroke="black" stroke-width="1.44" fill="none" id="connector0pin" cy="4.31559" r="1.99559"  cx="4.31559"/>
    </g>
   </g>
  </g>
  <g partID="170791">
   <g transform="translate(17.0272,59.3368)">
    <g id="copper1" >
     <circle stroke="black" stroke-width="1.44" fill="none" id="connector0pin" cy="4.31559" r="1.99559"  cx="4.31559"/>
    </g>
   </g>
  </g>
  <g partID="170731">
   <g transform="translate(17.0272,80.9368)">
    <g id="copper1" >
     <circle stroke="black" stroke-width="1.44" fill="none" id="connector0pin" cy="4.31559" r="1.99559"  cx="4.31559"/>
    </g>
   </g>
  </g>
  <g partID="170461">
   <g transform="translate(89.0272,52.1368)">
    <g id="copper1" >
     <circle stroke="black" stroke-width="1.44" fill="none" id="connector0pin" cy="4.31559" r="1.99559"  cx="4.31559"/>
    </g>
   </g>
  </g>
  <g partID="170451">
   <g transform="translate(89.0272,44.9368)">
    <g id="copper1" >
     <circle stroke="black" stroke-width="1.44" fill="none" id="connector0pin" cy="4.31559" r="1.99559"  cx="4.31559"/>
    </g>
   </g>
  </g>
  <g partID="170501">
   <g transform="translate(89.0272,88.1368)">
    <g id="copper1" >
     <circle stroke="black" stroke-width="1.44" fill="none" id="connector0pin" cy="4.31559" r="1.99559"  cx="4.31559"/>
    </g>
   </g>
  </g>
  <g partID="170441">
   <g transform="translate(89.0272,37.7368)">
    <g id="copper1" >
     <circle stroke="black" stroke-width="1.44" fill="none" id="connector0pin" cy="4.31559" r="1.99559"  cx="4.31559"/>
    </g>
   </g>
  </g>
  <g partID="170361">
   <g transform="translate(89.0272,23.3368)">
    <g id="copper1" >
     <circle stroke="black" stroke-width="1.44" fill="none" id="connector0pin" cy="4.31559" r="1.99559"  cx="4.31559"/>
    </g>
   </g>
  </g>
  <g partID="170271">
   <g transform="translate(89.0272,16.1368)">
    <g id="copper1" >
     <circle stroke="black" stroke-width="1.44" fill="none" id="connector0pin" cy="4.31559" r="1.99559"  cx="4.31559"/>
    </g>
   </g>
  </g>
  <g partID="170381">
   <g transform="translate(89.0272,30.5368)">
    <g id="copper1" >
     <circle stroke="black" stroke-width="1.44" fill="none" id="connector0pin" cy="4.31559" r="1.99559"  cx="4.31559"/>
    </g>
   </g>
  </g>
  <g partID="170641">
   <g transform="translate(89.0272,102.537)">
    <g id="copper1" >
     <circle stroke="black" stroke-width="1.44" fill="none" id="connector0pin" cy="4.31559" r="1.99559"  cx="4.31559"/>
    </g>
   </g>
  </g>
  <g partID="170621">
   <g transform="translate(89.0272,116.937)">
    <g id="copper1" >
     <circle stroke="black" stroke-width="1.44" fill="none" id="connector0pin" cy="4.31559" r="1.99559"  cx="4.31559"/>
    </g>
   </g>
  </g>
  <g partID="170551">
   <g transform="translate(89.0272,66.5368)">
    <g id="copper1" >
     <circle stroke="black" stroke-width="1.44" fill="none" id="connector0pin" cy="4.31559" r="1.99559"  cx="4.31559"/>
    </g>
   </g>
  </g>
  <g partID="170511">
   <g transform="translate(89.0272,95.3368)">
    <g id="copper1" >
     <circle stroke="black" stroke-width="1.44" fill="none" id="connector0pin" cy="4.31559" r="1.99559"  cx="4.31559"/>
    </g>
   </g>
  </g>
  <g partID="170521">
   <g transform="translate(89.0272,73.7368)">
    <g id="copper1" >
     <circle stroke="black" stroke-width="1.44" fill="none" id="connector0pin" cy="4.31559" r="1.99559"  cx="4.31559"/>
    </g>
   </g>
  </g>
  <g partID="170541">
   <g transform="translate(89.0272,59.3368)">
    <g id="copper1" >
     <circle stroke="black" stroke-width="1.44" fill="none" id="connector0pin" cy="4.31559" r="1.99559"  cx="4.31559"/>
    </g>
   </g>
  </g>
  <g partID="170531">
   <g transform="translate(89.0272,80.9368)">
    <g id="copper1" >
     <circle stroke="black" stroke-width="1.44" fill="none" id="connector0pin" cy="4.31559" r="1.99559"  cx="4.31559"/>
    </g>
   </g>
  </g>
  <g partID="171591">
   <g transform="translate(95.824,152.534)">
    <g id="copper1" >
     <circle stroke="black" stroke-width="0" fill="black" id="nonconn0" cy="4.71811" r="3.11811"  cx="4.71811"/>
    </g>
   </g>
  </g>
  <g partID="172051">
   <g transform="translate(48.7024,142.852)">
    <g id="copper1" flipped="1">
     <g transform="matrix(-1, 0, 0, 1, 31.68, 0)">
      <g>
       <g>
        <g>
         <rect stroke="black" y="12.168" stroke-width="1.44" fill="none" width="4.464" x="6.408" height="4.464"/>
         <circle stroke="black" stroke-width="1.44" fill="none" id="connector0pad" cy="14.4" r="2.232" cx="8.64"/>
         <circle stroke="black" stroke-width="1.44" fill="none" id="connector1pad" cy="14.4" r="2.232" cx="15.84"/>
         <circle stroke="black" stroke-width="1.44" fill="none" id="connector2pad" cy="14.4" r="2.232" cx="23.04"/>
        </g>
        <g>
         <g id="copper0">
          <rect stroke="black" y="12.168" stroke-width="1.44" fill="none" width="4.464" x="6.408" height="4.464"/>
          <circle stroke="black" stroke-width="1.44" fill="none" id="connector0pad" cy="14.4" r="2.232" cx="8.64"/>
          <circle stroke="black" stroke-width="1.44" fill="none" id="connector1pad" cy="14.4" r="2.232" cx="15.84"/>
          <circle stroke="black" stroke-width="1.44" fill="none" id="connector2pad" cy="14.4" r="2.232" cx="23.04"/>
         </g>
        </g>
       </g>
      </g>
     </g>
    </g>
   </g>
  </g>
  <g partID="172031">
   <g transform="translate(77.5024,142.852)">
    <g id="copper1" flipped="1">
     <g transform="matrix(-1, 0, 0, 1, 31.68, 0)">
      <g>
       <g>
        <g>
         <rect stroke="black" y="12.168" stroke-width="1.44" fill="none" width="4.464" x="6.408" height="4.464"/>
         <circle stroke="black" stroke-width="1.44" fill="none" id="connector0pad" cy="14.4" r="2.232" cx="8.64"/>
         <circle stroke="black" stroke-width="1.44" fill="none" id="connector1pad" cy="14.4" r="2.232" cx="15.84"/>
         <circle stroke="black" stroke-width="1.44" fill="none" id="connector2pad" cy="14.4" r="2.232" cx="23.04"/>
        </g>
        <g>
         <g id="copper0">
          <rect stroke="black" y="12.168" stroke-width="1.44" fill="none" width="4.464" x="6.408" height="4.464"/>
          <circle stroke="black" stroke-width="1.44" fill="none" id="connector0pad" cy="14.4" r="2.232" cx="8.64"/>
          <circle stroke="black" stroke-width="1.44" fill="none" id="connector1pad" cy="14.4" r="2.232" cx="15.84"/>
          <circle stroke="black" stroke-width="1.44" fill="none" id="connector2pad" cy="14.4" r="2.232" cx="23.04"/>
         </g>
        </g>
       </g>
      </g>
     </g>
    </g>
   </g>
  </g>
  <g partID="176660">
   <g transform="translate(15.6289,16.0177)">
    <g transform="matrix(0,1,-1,0,0,0)">
     <g id="copper1" >
      <rect y="1.6" stroke="none" stroke-width="0" id="connector0pad" fill="black" width="5.66929" x="1.6" fill-opacity="1" height="14.1732" />
      <g y="1.6" stroke="none" stroke-width="0" id="connector0terminal" fill="none" width="5.66929" x="1.6" height="14.1732" />
     </g>
    </g>
   </g>
  </g>
  <g partID="176920">
   <g transform="translate(15.6289,8.81775)">
    <g transform="matrix(0,1,-1,0,0,0)">
     <g id="copper1" >
      <rect y="1.6" stroke="none" stroke-width="0" id="connector0pad" fill="black" width="5.66929" x="1.6" fill-opacity="1" height="14.1732" />
      <g y="1.6" stroke="none" stroke-width="0" id="connector0terminal" fill="none" width="5.66929" x="1.6" height="14.1732" />
     </g>
    </g>
   </g>
  </g>
  <g partID="176500">
   <g transform="translate(116.429,88.0177)">
    <g transform="matrix(0,1,-1,0,0,0)">
     <g id="copper1" >
      <rect y="1.6" stroke="none" stroke-width="0" id="connector0pad" fill="black" width="5.66929" x="1.6" fill-opacity="1" height="14.1732" />
      <g y="1.6" stroke="none" stroke-width="0" id="connector0terminal" fill="none" width="5.66929" x="1.6" height="14.1732" />
     </g>
    </g>
   </g>
  </g>
  <g partID="176670">
   <g transform="translate(15.6289,23.2177)">
    <g transform="matrix(0,1,-1,0,0,0)">
     <g id="copper1" >
      <rect y="1.6" stroke="none" stroke-width="0" id="connector0pad" fill="black" width="5.66929" x="1.6" fill-opacity="1" height="14.1732" />
      <g y="1.6" stroke="none" stroke-width="0" id="connector0terminal" fill="none" width="5.66929" x="1.6" height="14.1732" />
     </g>
    </g>
   </g>
  </g>
  <g partID="176220">
   <g transform="translate(15.6289,88.0177)">
    <g transform="matrix(0,1,-1,0,0,0)">
     <g id="copper1" >
      <rect y="1.6" stroke="none" stroke-width="0" id="connector0pad" fill="black" width="5.66929" x="1.6" fill-opacity="1" height="14.1732" />
      <g y="1.6" stroke="none" stroke-width="0" id="connector0terminal" fill="none" width="5.66929" x="1.6" height="14.1732" />
     </g>
    </g>
   </g>
  </g>
  <g partID="175980">
   <g transform="translate(58.6904,162.966)">
    <g id="copper1" >
     <rect y="1.6" stroke="none" stroke-width="0" id="connector0pad" fill="black" width="8.50392" x="1.6" fill-opacity="1" height="14.1732" />
     <g y="1.6" stroke="none" stroke-width="0" id="connector0terminal" fill="none" width="8.50392" x="1.6" height="14.1732" />
    </g>
   </g>
  </g>
  <g partID="176510">
   <g transform="translate(116.429,80.8177)">
    <g transform="matrix(0,1,-1,0,0,0)">
     <g id="copper1" >
      <rect y="1.6" stroke="none" stroke-width="0" id="connector0pad" fill="black" width="5.66929" x="1.6" fill-opacity="1" height="14.1732" />
      <g y="1.6" stroke="none" stroke-width="0" id="connector0terminal" fill="none" width="5.66929" x="1.6" height="14.1732" />
     </g>
    </g>
   </g>
  </g>
  <g partID="176160">
   <g transform="translate(87.4904,162.966)">
    <g id="copper1" >
     <rect y="1.6" stroke="none" stroke-width="0" id="connector0pad" fill="black" width="8.50392" x="1.6" fill-opacity="1" height="14.1732" />
     <g y="1.6" stroke="none" stroke-width="0" id="connector0terminal" fill="none" width="8.50392" x="1.6" height="14.1732" />
    </g>
   </g>
  </g>
  <g partID="176930">
   <g transform="translate(15.6289,1.61775)">
    <g transform="matrix(0,1,-1,0,0,0)">
     <g id="copper1" >
      <rect y="1.6" stroke="none" stroke-width="0" id="connector0pad" fill="black" width="5.66929" x="1.6" fill-opacity="1" height="14.1732" />
      <g y="1.6" stroke="none" stroke-width="0" id="connector0terminal" fill="none" width="5.66929" x="1.6" height="14.1732" />
     </g>
    </g>
   </g>
  </g>
  <g partID="176210">
   <g transform="translate(15.6289,95.2177)">
    <g transform="matrix(0,1,-1,0,0,0)">
     <g id="copper1" >
      <rect y="1.6" stroke="none" stroke-width="0" id="connector0pad" fill="black" width="5.66929" x="1.6" fill-opacity="1" height="14.1732" />
      <g y="1.6" stroke="none" stroke-width="0" id="connector0terminal" fill="none" width="5.66929" x="1.6" height="14.1732" />
     </g>
    </g>
   </g>
  </g>
  <g partID="188061">
   <g transform="translate(89.0272,109.737)">
    <g id="copper1" >
     <circle stroke="black" stroke-width="1.44" fill="none" id="connector0pin" cy="4.31559" r="1.99559"  cx="4.31559"/>
    </g>
   </g>
  </g>
  <g partID="171010">
   <line stroke-linecap="round" stroke="black" y1="92.4524" stroke-width="1.728" x1="91.2668" x2="88.2024" y2="92.4524"/>
  </g>
  <g partID="171040">
   <line stroke-linecap="round" stroke="black" y1="92.4524" stroke-width="1.728" x1="23.4179" x2="26.4824" y2="92.4524"/>
  </g>
  <g partID="171070">
   <line stroke-linecap="round" stroke="black" y1="99.6524" stroke-width="1.728" x1="23.4179" x2="26.4824" y2="99.6524"/>
  </g>
  <g partID="170980">
   <line stroke-linecap="round" stroke="black" y1="85.2524" stroke-width="1.728" x1="91.2668" x2="88.2024" y2="85.2524"/>
  </g>
  <g partID="178340">
   <line stroke-linecap="round" stroke="black" y1="34.8637" stroke-width="1.728" x1="57.4677" x2="57.3475" y2="83.1924"/>
  </g>
  <g partID="171280">
   <line stroke-linecap="round" stroke="black" y1="27.654" stroke-width="1.728" x1="23.4179" x2="50.0126" y2="27.675"/>
  </g>
  <g partID="171390">
   <line stroke-linecap="round" stroke="black" y1="27.675" stroke-width="1.728" x1="50.0128" x2="57.4677" y2="34.8637"/>
  </g>
  <g partID="176070">
   <line stroke-linecap="round" stroke="black" y1="159.564" stroke-width="1.728" x1="64.5424" x2="64.5424" y2="164.966"/>
  </g>
  <g partID="176180">
   <line stroke-linecap="round" stroke="black" y1="159.564" stroke-width="1.728" x1="93.3424" x2="93.3424" y2="164.966"/>
  </g>
  <g partID="176340">
   <line stroke-linecap="round" stroke="black" y1="99.6524" stroke-width="1.728" x1="19.2668" x2="13.6289" y2="99.6524"/>
  </g>
  <g partID="176390">
   <line stroke-linecap="round" stroke="black" y1="92.4524" stroke-width="1.728" x1="19.2668" x2="13.6289" y2="92.4524"/>
  </g>
  <g partID="176540">
   <line stroke-linecap="round" stroke="black" y1="85.2524" stroke-width="1.728" x1="95.4179" x2="101.056" y2="85.2524"/>
  </g>
  <g partID="176570">
   <line stroke-linecap="round" stroke="black" y1="92.4524" stroke-width="1.728" x1="95.4179" x2="101.056" y2="92.4524"/>
  </g>
  <g partID="176700">
   <line stroke-linecap="round" stroke="black" y1="20.4524" stroke-width="1.728" x1="19.2668" x2="13.6289" y2="20.4524"/>
  </g>
  <g partID="176730">
   <line stroke-linecap="round" stroke="black" y1="27.6524" stroke-width="1.728" x1="19.2668" x2="13.6289" y2="27.6524"/>
  </g>
  <g partID="176990">
   <line stroke-linecap="round" stroke="black" y1="13.2977" stroke-width="1.728" x1="21.2576" x2="13.6289" y2="13.2735"/>
  </g>
  <g partID="176960">
   <line stroke-linecap="round" stroke="black" y1="18.3769" stroke-width="1.728" x1="21.3178" x2="21.2579" y2="13.2976"/>
  </g>
  <g partID="177050">
   <line stroke-linecap="round" stroke="black" y1="6.10895" stroke-width="1.728" x1="21.2576" x2="13.6289" y2="6.0788"/>
  </g>
  <g partID="177020">
   <line stroke-linecap="round" stroke="black" y1="18.3768" stroke-width="1.728" x1="21.3301" x2="21.2579" y2="6.10895"/>
  </g>
  <g partID="178280">
   <line stroke-linecap="round" stroke="black" y1="128.583" stroke-width="1.728" x1="71.8448" x2="71.7505" y2="154.94"/>
  </g>
  <g partID="177490">
   <line stroke-linecap="round" stroke="black" y1="121.128" stroke-width="1.728" x1="79.0336" x2="71.8449" y2="128.583"/>
  </g>
  <g partID="177460">
   <line stroke-linecap="round" stroke="black" y1="121.234" stroke-width="1.728" x1="91.2668" x2="79.0336" y2="121.128"/>
  </g>
  <g partID="188140">
   <line stroke-linecap="round" stroke="black" y1="114.066" stroke-width="1.728" x1="95.4183" x2="100.531" y2="114.099"/>
  </g>
  <g partID="188170">
   <line stroke-linecap="round" stroke="black" y1="114.099" stroke-width="1.728" x1="100.531" x2="100.542" y2="154.94"/>
  </g>
  <g partID="188200">
   <line stroke-linecap="round" stroke="black" y1="90.3924" stroke-width="1.728" x1="57.3424" x2="57.3424" y2="87.3124"/>
  </g>
  <g partID="188270">
   <line stroke-linecap="round" stroke="black" y1="94.5124" stroke-width="1.728" x1="57.3424" x2="57.3424" y2="97.5924"/>
  </g>
  <g partID="188340">
   <line stroke-linecap="round" stroke="black" y1="154.94" stroke-width="1.728" x1="57.3424" x2="57.3424" y2="101.712"/>
  </g>
  <g partID="189050">
   <line stroke-linecap="round" stroke="black" y1="186.018" stroke-width="1.728" x1="57.4037" x2="50.1439" y2="178.881"/>
  </g>
  <g partID="189200">
   <line stroke-linecap="round" stroke="black" y1="186.018" stroke-width="1.728" x1="71.8003" x2="57.4037" y2="186.018"/>
  </g>
  <g partID="188900">
   <line stroke-linecap="round" stroke="black" y1="178.881" stroke-width="1.728" x1="50.1439" x2="50.1439" y2="164.485"/>
  </g>
  <g partID="188750">
   <line stroke-linecap="round" stroke="black" y1="164.485" stroke-width="1.728" x1="50.1439" x2="55.7114" y2="158.891"/>
  </g>
  <g partID="188600">
   <line stroke-linecap="round" stroke="black" y1="164.485" stroke-width="1.728" x1="78.9371" x2="78.9371" y2="178.881"/>
  </g>
  <g partID="188450">
   <line stroke-linecap="round" stroke="black" y1="158.89" stroke-width="1.728" x1="84.5106" x2="78.9371" y2="164.485"/>
  </g>
  <g partID="189350">
   <line stroke-linecap="round" stroke="black" y1="178.881" stroke-width="1.728" x1="78.9371" x2="71.8003" y2="186.018"/>
  </g>
 </g>
</svg>
